<?xml version="1.0" standalone="no"?>
<!DOCTYPE svg PUBLIC "-//W3C//DTD SVG 20010904//EN"
 "http://www.w3.org/TR/2001/REC-SVG-20010904/DTD/svg10.dtd">
<svg version="1.0" xmlns="http://www.w3.org/2000/svg"
 width="500.000000pt" height="500.000000pt" viewBox="0 0 500.000000 500.000000"
 preserveAspectRatio="xMidYMid meet">

<g transform="translate(0.000000,500.000000) scale(0.100000,-0.100000)"
fill="#000000" stroke="none">
<path d="M3397 4784 c-15 -8 -32 -12 -37 -9 -11 7 -90 -24 -90 -36 0 -5 -7 -9
-15 -9 -8 0 -15 -5 -15 -11 0 -6 -8 -8 -17 -5 -13 3 -27 -7 -48 -37 -16 -23
-28 -45 -27 -49 4 -14 -40 -99 -54 -105 -11 -4 -14 -17 -11 -44 2 -23 -2 -47
-9 -57 -7 -9 -14 -29 -14 -43 0 -14 -3 -29 -7 -33 -7 -7 -10 -18 -17 -81 -3
-22 -9 -57 -14 -77 -6 -22 -6 -38 -1 -40 5 -2 1 -19 -9 -39 -10 -20 -15 -44
-12 -54 10 -29 0 -64 -22 -71 -13 -4 -17 -9 -10 -16 12 -12 -9 -110 -29 -134
-11 -14 -10 -18 6 -30 14 -10 15 -14 4 -14 -15 0 -36 27 -55 70 -13 29 -7 53
9 43 7 -4 0 8 -16 27 -15 19 -31 40 -35 45 -5 6 -7 16 -4 23 2 6 0 12 -6 12
-11 0 -35 77 -27 90 3 6 -3 10 -14 10 -17 0 -21 6 -21 33 0 18 -7 43 -16 55
-8 12 -12 22 -8 22 3 0 2 6 -4 13 -14 18 -42 161 -42 218 0 38 -4 51 -17 56
-10 3 -24 11 -32 17 -7 6 -28 9 -46 7 -38 -3 -76 14 -72 31 2 12 -4 15 -49 17
-21 1 -24 5 -19 22 5 15 4 19 -4 15 -6 -4 -11 -15 -11 -24 0 -15 -2 -15 -10
-2 -12 19 -13 33 -1 26 5 -3 12 1 15 10 9 22 8 24 -9 17 -10 -3 -15 -1 -13 7
2 7 -6 14 -17 16 -11 1 -25 11 -32 21 -11 15 -17 15 -33 5 -13 -8 -20 -8 -20
-2 0 6 -15 10 -34 8 -18 -1 -45 5 -58 14 -17 11 -37 15 -65 11 -35 -5 -41 -3
-46 18 -5 17 -9 20 -19 11 -15 -12 -71 -6 -102 10 -13 7 -21 7 -25 0 -4 -7
-12 -8 -21 -2 -18 11 -64 13 -74 3 -10 -10 -36 -13 -36 -4 0 5 -14 8 -30 9
-17 0 -30 -3 -30 -8 0 -11 -32 -1 -41 13 -9 13 -59 17 -59 5 0 -6 -7 -8 -15
-4 -9 3 -19 -3 -25 -14 -6 -12 -21 -20 -35 -20 -15 0 -25 -6 -25 -15 0 -8 -15
-21 -34 -29 -42 -17 -54 -35 -34 -50 27 -20 26 -40 -4 -68 -17 -15 -27 -31
-23 -37 3 -6 -2 -11 -12 -11 -17 -1 -17 -2 1 -15 22 -17 14 -20 -14 -5 -15 8
-19 4 -25 -28 -4 -20 -14 -45 -23 -55 -11 -12 -12 -21 -5 -28 7 -7 8 -22 2
-42 -6 -22 -5 -33 4 -39 6 -4 7 -8 2 -8 -14 0 -35 -59 -31 -85 2 -11 -1 -25
-6 -32 -5 -7 -12 -40 -14 -75 -7 -107 -23 -175 -46 -205 -6 -7 -6 -26 -2 -45
4 -18 6 -37 5 -43 -18 -56 -24 -90 -26 -147 -2 -66 -8 -87 -47 -177 -12 -25
-16 -47 -11 -52 16 -16 -6 -158 -28 -180 -11 -11 -17 -24 -13 -30 8 -13 10
-97 2 -105 -4 -3 -4 -12 -1 -20 3 -8 0 -14 -5 -14 -6 0 -10 -24 -10 -57 0 -32
-4 -69 -9 -83 -4 -14 -8 -34 -8 -45 0 -11 -3 -23 -9 -26 -5 -4 -11 -31 -13
-60 -3 -30 -18 -89 -34 -132 -26 -69 -28 -82 -19 -118 8 -30 8 -44 0 -55 -15
-18 -22 -84 -20 -194 0 -14 -2 -36 -5 -50 -3 -14 -10 -56 -17 -95 -6 -38 -17
-85 -26 -104 -13 -31 -13 -36 2 -46 9 -7 14 -19 12 -26 -3 -8 -7 -56 -10 -108
-4 -67 -9 -97 -19 -103 -11 -6 -13 -25 -10 -85 5 -92 5 -76 -2 -188 -3 -49
-10 -121 -15 -160 -9 -65 -9 -71 10 -87 13 -11 16 -18 8 -20 -14 -5 -28 -200
-15 -209 11 -8 9 -20 -5 -37 -7 -8 -7 -16 0 -25 10 -12 9 -423 -1 -562 -4 -47
-1 -52 32 -82 20 -18 39 -33 44 -33 4 0 7 -9 7 -20 0 -26 54 -55 77 -41 10 5
26 5 40 0 13 -5 51 -15 84 -23 53 -12 60 -12 69 3 8 13 11 13 18 3 5 -8 13
-14 17 -14 4 0 11 6 16 14 5 7 12 13 16 14 51 5 103 18 103 27 0 6 6 2 14 -8
13 -18 14 -18 20 2 8 24 116 69 157 65 20 -2 40 11 87 58 34 33 62 57 62 53 0
-18 38 70 44 102 4 19 12 35 17 35 6 0 7 9 4 21 -5 14 -3 19 3 15 15 -9 26 14
13 27 -7 7 -3 17 14 33 14 13 25 32 25 43 0 11 5 23 10 26 15 9 12 27 -2 20
-7 -4 -5 0 6 9 12 10 17 23 14 41 -3 14 -1 25 4 25 5 0 7 4 3 9 -3 5 0 13 6
16 5 4 8 14 5 22 -4 9 -1 22 6 31 7 8 14 27 15 41 5 51 9 77 16 88 3 5 5 20 2
32 -5 25 13 81 26 81 5 0 9 5 9 11 0 5 -4 7 -10 4 -5 -3 -10 -1 -10 4 0 6 5
11 12 11 6 0 8 3 5 7 -4 3 -1 13 6 21 7 10 8 13 1 9 -15 -9 -26 53 -13 69 5 6
7 19 3 28 -3 9 -3 24 1 34 10 22 11 25 19 96 4 38 3 63 -5 72 -9 11 -7 14 12
15 21 0 22 1 5 8 -18 7 -18 8 -3 14 19 7 23 42 7 52 -11 7 12 35 29 35 14 0
14 17 1 25 -5 3 -10 1 -10 -5 0 -6 -4 -8 -10 -5 -15 9 -12 25 4 25 7 0 16 9
19 20 4 15 0 20 -14 20 -10 0 -19 5 -19 10 0 6 7 10 15 10 17 0 21 25 5 35
-11 7 6 51 31 80 30 34 41 74 29 110 -8 24 -7 42 5 75 8 24 18 67 21 96 7 52
24 66 24 19 0 -13 6 -26 13 -28 9 -4 9 -8 -2 -15 -18 -13 -5 -33 17 -25 15 6
15 5 3 -10 -9 -12 -11 -28 -5 -54 4 -21 6 -42 5 -47 -1 -4 3 -14 9 -21 13 -15
23 -59 23 -92 -1 -13 2 -23 6 -23 7 0 41 -64 41 -76 0 -3 -6 -2 -12 1 -7 4 0
-5 16 -20 19 -18 29 -37 29 -56 0 -15 4 -26 9 -23 4 3 8 -7 8 -21 0 -14 4 -24
8 -21 9 5 42 -28 42 -43 0 -5 7 -12 16 -15 9 -3 14 -13 10 -21 -3 -8 3 -19 12
-24 9 -6 14 -11 10 -11 -4 0 1 -15 12 -32 11 -18 20 -41 20 -51 0 -10 6 -20
14 -23 12 -4 26 -48 30 -89 1 -13 27 -59 37 -65 4 -3 10 -21 12 -40 2 -19 10
-46 17 -60 8 -14 13 -30 12 -36 -1 -6 5 -17 13 -24 8 -7 15 -19 15 -27 0 -8 5
-11 10 -8 6 3 10 -5 10 -18 0 -22 22 -43 42 -39 4 1 10 -8 14 -21 3 -12 12
-28 18 -36 6 -8 11 -21 12 -30 0 -9 4 -24 8 -33 4 -9 5 -21 2 -27 -4 -5 -2
-12 3 -16 5 -3 8 -14 6 -25 -3 -15 2 -20 17 -20 16 0 18 -3 9 -14 -9 -11 -7
-15 10 -19 12 -3 18 -10 14 -16 -3 -6 -2 -11 3 -11 14 0 47 -73 51 -113 1 -4
7 -7 14 -6 26 3 38 -1 31 -12 -4 -8 0 -9 15 -4 17 5 20 3 14 -11 -5 -14 -2
-16 18 -11 16 4 30 0 47 -15 21 -21 59 -30 182 -44 32 -4 63 1 105 16 33 11
75 25 94 30 48 12 81 38 119 96 18 27 46 63 61 79 16 17 31 40 35 51 4 12 15
32 26 44 11 13 20 33 20 45 0 12 11 39 25 59 13 20 22 36 18 36 -3 0 1 8 10
18 10 10 14 22 10 25 -3 4 1 7 10 7 16 0 21 22 20 77 0 6 6 9 15 6 10 -5 13
-2 8 6 -5 7 -2 17 7 24 8 7 17 23 20 37 12 58 17 73 26 84 6 7 6 18 1 25 -10
18 -2 41 24 65 17 16 18 18 4 13 -22 -8 -23 6 -3 26 8 8 11 17 8 20 -10 11
-12 57 -2 63 5 3 5 13 -1 24 -6 11 -6 21 -1 24 13 8 21 46 9 43 -6 -1 -13 4
-15 11 -3 7 1 10 10 6 12 -4 15 3 15 30 0 19 3 39 6 45 4 5 -2 15 -11 21 -16
10 -16 11 4 7 20 -4 21 -1 20 44 -1 38 -5 50 -20 55 -10 3 -16 8 -14 11 3 2
15 0 26 -7 26 -13 47 -4 32 14 -6 7 -8 22 -4 34 5 19 1 22 -28 23 -31 2 -31 2
-6 6 25 4 40 33 17 33 -5 0 -10 9 -10 19 0 11 5 23 10 26 18 11 11 33 -9 28
-15 -4 -19 0 -17 21 0 16 6 24 13 22 18 -7 21 27 4 48 -9 11 -11 16 -4 13 6
-4 14 -3 17 2 3 5 -2 12 -11 15 -14 6 -15 9 -4 16 15 8 17 60 5 113 -3 17 -1
27 6 27 8 0 9 10 5 30 -3 16 -2 37 3 47 7 12 6 26 -4 46 -14 25 -13 28 1 25
13 -2 17 8 20 55 2 33 6 61 9 64 3 3 -5 14 -17 25 l-22 19 28 -4 c15 -2 27 0
27 4 0 5 -4 9 -9 9 -10 0 -9 14 4 44 5 10 4 26 -2 35 -8 12 -6 20 6 31 8 8 19
14 23 12 12 -3 9 33 -3 45 -7 7 -7 13 -1 17 19 12 1 46 -25 46 -29 0 -27 22 3
30 22 6 25 27 7 38 -10 6 -10 16 -1 45 6 20 15 37 19 37 5 0 6 7 3 15 -4 9
-13 14 -22 13 -20 -4 -26 16 -9 34 8 7 17 30 21 51 5 29 4 37 -8 37 -12 0 -14
7 -9 33 3 17 9 34 13 37 4 3 7 28 6 55 -1 81 13 208 25 216 8 5 8 8 0 13 -6 4
-9 23 -6 42 2 18 0 34 -5 34 -6 0 -10 14 -10 30 0 20 5 30 15 30 8 0 15 5 15
10 0 6 -8 10 -17 10 -14 0 -15 2 -4 9 9 6 10 11 3 15 -6 4 -9 13 -6 21 4 8 -1
18 -10 21 -12 5 -13 10 -5 25 5 10 6 19 1 19 -13 0 -8 69 6 75 13 5 17 55 3
55 -4 0 -5 18 -1 40 4 22 6 62 4 88 -2 26 1 74 7 106 8 47 8 61 -3 67 -8 5
-13 31 -14 71 -1 76 -11 130 -24 138 -5 3 -14 49 -20 101 -14 129 -20 159 -36
191 -22 42 -45 50 -144 45 -53 -3 -90 -1 -90 5 0 5 -4 7 -9 3 -6 -3 -8 4 -6
16 2 12 2 19 -2 15 -3 -3 -12 -1 -20 5 -9 9 -17 8 -27 0 -11 -9 -15 -9 -19 1
-4 8 -6 7 -6 -4 -1 -11 -6 -15 -16 -12 -8 3 -13 11 -12 17 1 7 -8 11 -20 10
-13 -2 -23 2 -23 7 0 6 -17 10 -38 10 -21 0 -47 6 -57 14 -18 12 -24 12 -48 0z
m-1652 -14 c3 -5 1 -10 -4 -10 -6 0 -11 5 -11 10 0 6 2 10 4 10 3 0 8 -4 11
-10z m1761 -42 c4 -7 3 -8 -4 -4 -7 4 -12 1 -12 -8 0 -8 -4 -17 -9 -20 -5 -4
-8 2 -6 11 2 10 4 21 4 26 1 11 19 8 27 -5z m-46 -17 c0 -5 -7 -11 -15 -15 -9
-3 -15 0 -15 9 0 8 7 15 15 15 8 0 15 -4 15 -9z m-1304 -68 c-10 -10 -19 5
-10 18 6 11 8 11 12 0 2 -7 1 -15 -2 -18z m29 7 c3 -5 1 -10 -4 -10 -6 0 -11
5 -11 10 0 6 2 10 4 10 3 0 8 -4 11 -10z m222 -42 c-3 -8 -6 -5 -6 6 -1 11 2
17 5 13 3 -3 4 -12 1 -19z m-142 -18 c-3 -5 -10 -10 -16 -10 -5 0 -9 5 -9 10
0 6 7 10 16 10 8 0 12 -4 9 -10z m-819 -658 c7 -5 6 -19 -3 -47 l-13 -40 5 42
c3 28 1 43 -8 46 -6 3 -7 6 -2 6 6 0 15 -3 21 -7z m-46 -218 c0 -14 -3 -14
-15 -4 -8 7 -15 14 -15 16 0 2 7 4 15 4 8 0 15 -7 15 -16z m-23 -110 l-14 -27
-5 27 c-4 21 -2 26 9 22 7 -3 13 0 12 7 -1 6 0 21 1 32 2 15 4 13 7 -7 2 -15
-2 -39 -10 -54z m1623 36 c0 -11 -4 -20 -8 -20 -4 0 -8 9 -8 20 0 11 4 20 8
20 4 0 8 -9 8 -20z m-1649 -216 c-11 -38 -20 -59 -20 -47 -1 12 -6 25 -12 29
-8 5 -6 10 5 16 18 10 22 43 6 53 -13 8 -13 25 1 25 5 0 8 -4 4 -9 -3 -5 -1
-12 5 -16 6 -4 10 8 10 29 0 19 3 43 8 53 17 43 12 -67 -7 -133z m-44 -266
c-3 -8 -6 -5 -6 6 -1 11 2 17 5 13 3 -3 4 -12 1 -19z m2693 -116 c0 -13 -12
-22 -22 -16 -10 6 -1 24 13 24 5 0 9 -4 9 -8z m-2797 -202 c-3 -11 -7 -20 -9
-20 -2 0 -4 9 -4 20 0 11 4 20 9 20 5 0 7 -9 4 -20z m2813 -128 c-9 -8 -26 10
-26 26 1 15 2 15 15 -2 8 -11 13 -21 11 -24z m-31 -2 c10 -11 14 -20 8 -20 -5
0 -18 9 -28 20 -10 11 -14 20 -8 20 5 0 18 -9 28 -20z m-2776 -84 c-1 -23 -3
-25 -6 -8 -2 12 -9 22 -14 22 -5 0 -9 7 -9 15 0 9 6 12 15 9 9 -4 14 -18 14
-38z m-21 -32 c34 -9 26 -24 -13 -24 -26 0 -33 3 -29 15 7 17 9 17 42 9z m9
-96 c-3 -8 -6 -5 -6 6 -1 11 2 17 5 13 3 -3 4 -12 1 -19z m-14 -9 c3 -13 1
-19 -6 -16 -15 5 -22 37 -9 37 5 0 12 -9 15 -21z m-21 -33 c22 -28 26 -40 22
-77 -9 -75 -13 -89 -28 -83 -12 4 -11 10 2 36 12 24 13 38 5 59 -8 20 -8 30 1
34 8 3 7 7 -2 11 -18 8 -42 34 -42 45 0 18 15 9 42 -25z m2773 -136 c3 -6 -1
-7 -9 -4 -18 7 -21 14 -7 14 6 0 13 -4 16 -10z m-2794 -39 c-9 -6 -10 -10 -2
-12 20 -7 24 -69 10 -148 -12 -74 -12 -74 -31 -51 -20 25 -23 40 -8 40 6 0 10
-10 10 -22 0 -45 12 -7 16 54 7 94 6 110 -13 130 -15 17 -15 18 8 18 17 0 20
-3 10 -9z m2749 -52 c0 -5 -4 -9 -8 -9 -5 0 -9 7 -9 15 0 8 4 12 9 9 4 -3 8
-9 8 -15z m-7 -39 c5 -19 -17 -48 -26 -33 -5 8 9 53 17 53 2 0 6 -9 9 -20z
m-2757 -194 l-6 -25 -23 22 c-25 24 -27 38 -2 17 12 -10 16 -9 21 4 10 25 17
11 10 -18z m2719 -7 c-10 -15 -25 -10 -19 6 4 8 10 12 15 9 5 -3 7 -10 4 -15z
m-10 -28 c3 -5 1 -12 -5 -16 -5 -3 -10 1 -10 9 0 18 6 21 15 7z m-2715 -57 c0
-8 -5 -12 -10 -9 -6 4 -8 11 -5 16 9 14 15 11 15 -7z m2835 -94 c3 -5 1 -10
-4 -10 -6 0 -11 5 -11 10 0 6 2 10 4 10 3 0 8 -4 11 -10z m-118 -337 c-3 -41
-7 -48 -25 -49 -27 -2 -27 1 -2 33 11 14 20 34 20 44 0 11 2 19 5 19 3 0 4
-21 2 -47z m-874 -689 c-3 -15 -20 -15 -26 0 -4 9 0 13 11 12 9 -2 16 -7 15
-12z m35 -64 c6 -16 9 -30 7 -30 -11 0 -35 34 -35 51 0 27 16 16 28 -21z"/>
<path d="M3030 569 c0 -5 5 -7 10 -4 6 3 10 8 10 11 0 2 -4 4 -10 4 -5 0 -10
-5 -10 -11z"/>
</g>
</svg>
